<!DOCTYPE svg PUBLIC "-//W3C//DTD SVG 1.1//EN" "http://www.w3.org/Graphics/SVG/1.1/DTD/svg11.dtd">
<!-- Uploaded to: SVG Repo, www.svgrepo.com, Transformed by: SVG Repo Mixer Tools -->
<svg width="189px" height="189px" viewBox="-5.52 -5.52 35.04 35.04" xmlns="http://www.w3.org/2000/svg" id="sound-max" class="icon glyph" fill="#dbdbdb" stroke="#dbdbdb" stroke-width="0.00024000000000000003" transform="matrix(1, 0, 0, 1, 0, 0)">
<g id="SVGRepo_bgCarrier" stroke-width="0"/>
<g id="SVGRepo_tracerCarrier" stroke-linecap="round" stroke-linejoin="round" stroke="#CCCCCC" stroke-width="1.008"/>
<g id="SVGRepo_iconCarrier">
<path d="M18.36,19.36a1,1,0,0,1-.7-.29,1,1,0,0,1,0-1.41,8,8,0,0,0,0-11.32,1,1,0,0,1,1.41-1.41,10,10,0,0,1,0,14.14A1,1,0,0,1,18.36,19.36Z" style="fill:#ffffff"/>
<path d="M15.54,16.54a1,1,0,0,1-.71-.3,1,1,0,0,1,0-1.41,4,4,0,0,0,0-5.66,1,1,0,0,1,1.41-1.41,6,6,0,0,1,0,8.48A1,1,0,0,1,15.54,16.54Z" style="fill:#ffffff"/>
<path d="M11.38,4.08a1,1,0,0,0-1.09.21L6.59,8H4a2,2,0,0,0-2,2v4a2,2,0,0,0,2,2H6.59l3.7,3.71A1,1,0,0,0,11,20a.84.84,0,0,0,.38-.08A1,1,0,0,0,12,19V5A1,1,0,0,0,11.38,4.08Z" style="fill:#ffffff"/>
</g>
</svg>